<?xml version="1.0" encoding="UTF-8"?>
<svg width="400" height="400" viewBox="0 0 400 400" fill="none" xmlns="http://www.w3.org/2000/svg">
    <g filter="url(#filter0_d_1234_1)">
        <path d="M200 100C200 100 250 150 250 200C250 250 200 300 200 300C150 300 100 250 100 200C100 150 150 100 200 100Z" fill="#226D68"/>
    </g>
    <path d="M150 150L250 150" stroke="#1A5854" stroke-width="2" stroke-linecap="round"/>
    <path d="M150 250L250 250" stroke="#1A5854" stroke-width="2" stroke-linecap="round"/>
    <path d="M200 100L200 300" stroke="#1A5854" stroke-width="2" stroke-linecap="round"/>
    <path d="M150 150L250 150L250 250L150 250L150 150Z" stroke="#1A5854" stroke-width="2" stroke-linecap="round"/>
    
    <!-- Personne étudiant -->
    <path d="M300 200C300 200 320 220 320 240C320 260 300 280 300 280" fill="#226D68"/>
    <path d="M300 200C300 200 280 220 280 240C280 260 300 280 300 280" fill="#226D68"/>
    <path d="M280 240L320 240" stroke="#1A5854" stroke-width="2" stroke-linecap="round"/>
    <path d="M290 240L290 260" stroke="#1A5854" stroke-width="2" stroke-linecap="round"/>
    
    <!-- Livre -->
    <path d="M100 100L140 100L140 140L100 140L100 100Z" fill="#226D68"/>
    <path d="M100 100L140 100L140 140L100 140L100 100Z" stroke="#1A5854" stroke-width="2" stroke-linecap="round"/>
    <path d="M110 110L130 110" stroke="#1A5854" stroke-width="2" stroke-linecap="round"/>
    
    <!-- Graphique -->
    <path d="M200 100L220 120L240 140L260 160L280 180" stroke="#1A5854" stroke-width="2" stroke-linecap="round"/>
    <path d="M200 100L200 180" stroke="#1A5854" stroke-width="1" stroke-dasharray="2 2"/>
    <path d="M200 100L280 100" stroke="#1A5854" stroke-width="1" stroke-dasharray="2 2"/>
    
    <defs>
        <filter id="filter0_d_1234_1" x="0" y="0" width="400" height="400" filterUnits="userSpaceOnUse" color-interpolation-filters="sRGB">
            <feFlood flood-opacity="0" result="BackgroundImageFix"/>
            <feColorMatrix in="SourceAlpha" type="matrix" values="0 0 0 0 0 0 0 0 0 0 0 0 0 0 0 0 0 0 127 0" result="hardAlpha"/>
            <feOffset dx="4" dy="4"/>
            <feGaussianBlur stdDeviation="2"/>
            <feComposite in2="hardAlpha" operator="out"/>
            <feColorMatrix type="matrix" values="0 0 0 0 0.137255 0 0 0 0 0.427451 0 0 0 0 0.407843 0 0 0 0.2 0"/>
            <feBlend mode="normal" in2="BackgroundImageFix" result="effect1_dropShadow_1234_1"/>
            <feBlend mode="normal" in="SourceGraphic" in2="effect1_dropShadow_1234_1" result="shape"/>
        </filter>
    </defs>
</svg>
